<svg width="180" height="180" xmlns="http://www.w3.org/2000/svg">
  <defs>
    <!-- Shimmery aqua blue gradient background -->
    <radialGradient id="shimmerAqua" cx="40%" cy="30%">
      <stop offset="0%" style="stop-color:#E0FFFF;stop-opacity:1" />
      <stop offset="25%" style="stop-color:#87CEEB;stop-opacity:1" />
      <stop offset="50%" style="stop-color:#00CED1;stop-opacity:1" />
      <stop offset="75%" style="stop-color:#008B8B;stop-opacity:1" />
      <stop offset="100%" style="stop-color:#006666;stop-opacity:1" />
    </radialGradient>
    
    <!-- Luxury pool water -->
    <linearGradient id="luxuryWater" x1="0%" y1="0%" x2="100%" y2="100%">
      <stop offset="0%" style="stop-color:#B0E0E6;stop-opacity:0.9" />
      <stop offset="30%" style="stop-color:#20B2AA;stop-opacity:0.95" />
      <stop offset="70%" style="stop-color:#008080;stop-opacity:1" />
      <stop offset="100%" style="stop-color:#004C4C;stop-opacity:1" />
    </linearGradient>
    
    <!-- Pool deck/coping - light concrete -->
    <linearGradient id="concrete" x1="0%" y1="0%" x2="100%" y2="100%">
      <stop offset="0%" style="stop-color:#F0F0F0;stop-opacity:1" />
      <stop offset="50%" style="stop-color:#E0E0E0;stop-opacity:1" />
      <stop offset="100%" style="stop-color:#C0C0C0;stop-opacity:1" />
    </linearGradient>
    
    <!-- Pool interior walls -->
    <linearGradient id="poolWalls" x1="0%" y1="0%" x2="100%" y2="100%">
      <stop offset="0%" style="stop-color:#B0B0B0;stop-opacity:1" />
      <stop offset="100%" style="stop-color:#808080;stop-opacity:1" />
    </linearGradient>
    
    <!-- Shimmer effects -->
    <radialGradient id="shimmer1" cx="50%" cy="50%">
      <stop offset="0%" style="stop-color:rgba(255,255,255,0.4);stop-opacity:1" />
      <stop offset="100%" style="stop-color:rgba(255,255,255,0);stop-opacity:0" />
    </radialGradient>
    
    <!-- Beach ball gradients -->
    <radialGradient id="beachBallRed" cx="30%" cy="30%">
      <stop offset="0%" style="stop-color:#FF6B6B;stop-opacity:1" />
      <stop offset="100%" style="stop-color:#E53E3E;stop-opacity:1" />
    </radialGradient>
    <radialGradient id="beachBallBlue" cx="30%" cy="30%">
      <stop offset="0%" style="stop-color:#4299E1;stop-opacity:1" />
      <stop offset="100%" style="stop-color:#2B6CB0;stop-opacity:1" />
    </radialGradient>
    <radialGradient id="beachBallYellow" cx="30%" cy="30%">
      <stop offset="0%" style="stop-color:#F6E05E;stop-opacity:1" />
      <stop offset="100%" style="stop-color:#D69E2E;stop-opacity:1" />
    </radialGradient>
    <radialGradient id="beachBallWhite" cx="30%" cy="30%">
      <stop offset="0%" style="stop-color:#FFFFFF;stop-opacity:1" />
      <stop offset="100%" style="stop-color:#E2E8F0;stop-opacity:1" />
    </radialGradient>
  </defs>
  
  <!-- Shimmery aqua background -->
  <rect width="180" height="180" rx="30" fill="url(#shimmerAqua)"/>
  
  <!-- Multiple shimmer effects -->
  <circle cx="50" cy="40" r="35" fill="url(#shimmer1)" opacity="0.6"/>
  <circle cx="130" cy="60" r="25" fill="url(#shimmer1)" opacity="0.4"/>
  <circle cx="90" cy="25" r="20" fill="url(#shimmer1)" opacity="0.7"/>
  <circle cx="140" cy="140" r="30" fill="url(#shimmer1)" opacity="0.3"/>
  
  <!-- 3D Rectangular Pool -->
  <path d="M 25 70 L 155 70 L 165 150 L 15 150 Z" fill="url(#concrete)" stroke="#D0D0D0" stroke-width="2"/>
  <path d="M 30 75 L 150 75 L 160 145 L 20 145 Z" fill="#F5F5F5" stroke="#C0C0C0" stroke-width="1"/>
  <path d="M 35 80 L 145 80 L 155 140 L 25 140 Z" fill="url(#poolWalls)" stroke="#A0A0A0" stroke-width="1"/>
  <path d="M 40 85 L 140 85 L 150 135 L 30 135 Z" fill="url(#luxuryWater)"/>
  
  <!-- Pool tile lines -->
  <path d="M 50 90 L 130 90 L 140 130 L 40 130 Z" fill="none" stroke="rgba(255,255,255,0.3)" stroke-width="0.5" opacity="0.8"/>
  <path d="M 60 95 L 120 95 L 130 125 L 50 125 Z" fill="none" stroke="rgba(255,255,255,0.25)" stroke-width="0.5" opacity="0.6"/>
  
  <!-- Realistic Beach Ball in pool -->
  <g transform="translate(115, 105)">
    <!-- Beach ball shadow in water -->
    <ellipse cx="0" cy="5" rx="8" ry="3" fill="rgba(0,0,0,0.2)" opacity="0.6"/>
    
    <!-- Beach ball segments -->
    <circle cx="0" cy="0" r="10" fill="url(#beachBallWhite)"/>
    
    <!-- Red segment -->
    <path d="M 0 -10 A 10 10 0 0 1 7.07 -7.07 L 0 0 Z" fill="url(#beachBallRed)"/>
    
    <!-- Blue segment -->
    <path d="M 7.07 -7.07 A 10 10 0 0 1 10 0 L 0 0 Z" fill="url(#beachBallBlue)"/>
    
    <!-- Yellow segment -->
    <path d="M 10 0 A 10 10 0 0 1 7.07 7.07 L 0 0 Z" fill="url(#beachBallYellow)"/>
    
    <!-- Red segment (bottom) -->
    <path d="M 7.07 7.07 A 10 10 0 0 1 0 10 L 0 0 Z" fill="url(#beachBallRed)"/>
    
    <!-- Blue segment (left bottom) -->
    <path d="M 0 10 A 10 10 0 0 1 -7.07 7.07 L 0 0 Z" fill="url(#beachBallBlue)"/>
    
    <!-- Yellow segment (left) -->
    <path d="M -7.07 7.07 A 10 10 0 0 1 -10 0 L 0 0 Z" fill="url(#beachBallYellow)"/>
    
    <!-- White segment (left top) -->
    <path d="M -10 0 A 10 10 0 0 1 -7.07 -7.07 L 0 0 Z" fill="url(#beachBallWhite)"/>
    
    <!-- Red segment (top left) -->
    <path d="M -7.07 -7.07 A 10 10 0 0 1 0 -10 L 0 0 Z" fill="url(#beachBallRed)"/>
    
    <!-- Beach ball highlight -->
    <circle cx="-3" cy="-3" r="3" fill="rgba(255,255,255,0.4)" opacity="0.8"/>
  </g>
  
  <!-- Water ripples around beach ball -->
  <ellipse cx="115" cy="110" rx="15" ry="6" fill="none" stroke="rgba(255,255,255,0.3)" stroke-width="1" opacity="0.5"/>
  
  <!-- Water surface reflections -->
  <ellipse cx="70" cy="110" rx="20" ry="8" fill="none" stroke="rgba(255,255,255,0.4)" stroke-width="1" opacity="0.7"/>
  <ellipse cx="70" cy="110" rx="12" ry="5" fill="none" stroke="rgba(255,255,255,0.3)" stroke-width="1" opacity="0.5"/>
  
  <!-- ChemLog text - Helvetica/Arial (Standard) -->
  <text x="90" y="50" font-family="Helvetica, Arial, sans-serif" font-size="30" font-weight="bold" 
        text-anchor="middle" dominant-baseline="middle" fill="white" opacity="0.95"
        style="text-shadow: 2px 2px 6px rgba(0,0,0,0.6);">ChemLog</text>
</svg>
